<?xml version="1.0" encoding="UTF-8" standalone="no"?>
<svg
   xmlns:dc="http://purl.org/dc/elements/1.1/"
   xmlns:cc="http://creativecommons.org/ns#"
   xmlns:rdf="http://www.w3.org/1999/02/22-rdf-syntax-ns#"
   xmlns:svg="http://www.w3.org/2000/svg"
   xmlns="http://www.w3.org/2000/svg"
   xmlns:xlink="http://www.w3.org/1999/xlink"
   width="20.697689"
   height="20.697689"
   version="1.1"
   id="svg8">
  <defs
     id="defs12">
    <mask
       maskUnits="userSpaceOnUse"
       id="mask4675">
      <ellipse
         style="fill:#f9f9f9"
         id="ellipse4677"
         cx="4.6010699"
         cy="9.3015938"
         rx="9.3673067"
         ry="9.6976404" />
    </mask>
    <clipPath
       clipPathUnits="userSpaceOnUse"
       id="clipPath4681">
      <rect
         style="fill:#ed106a;fill-opacity:1"
         id="rect4683"
         width="20.952566"
         height="22.840183"
         x="-5.2906976"
         y="-1.0569123" />
    </clipPath>
    <clipPath
       clipPathUnits="userSpaceOnUse"
       id="clipPath4685">
      <rect
         style="fill:#ed106a;fill-opacity:1"
         id="rect4687"
         width="20.952566"
         height="22.840183"
         x="-5.2906976"
         y="-1.0569123" />
    </clipPath>
    <clipPath
       clipPathUnits="userSpaceOnUse"
       id="clipPath4689">
      <rect
         style="fill:#ed106a;fill-opacity:1"
         id="rect4691"
         width="20.952566"
         height="22.840183"
         x="-5.2906976"
         y="-1.0569123" />
    </clipPath>
    <clipPath
       clipPathUnits="userSpaceOnUse"
       id="clipPath4719">
      <use
         x="0"
         y="0"
         xlink:href="#g4715"
         id="use4721"
         width="100%"
         height="100%" />
    </clipPath>
  </defs>
  <g
     id="g6"
     style="fill:#ffffff;fill-rule:evenodd"
     transform="translate(4.2053171,0.04699045)">
    <g
       id="g4717"
       clip-path="url(#clipPath4719)"
       transform="translate(1.0287277,-0.04719115)">
      <g
         id="g4715">
        <path
           clip-path="url(#clipPath4689)"
           style="fill:#ed106a;fill-opacity:1"
           mask="url(#mask4675)"
           id="path2"
           d="m 4.781,8.3256 c -0.714,0 -1.307,0.2516 -1.7792,0.7547 -0.4722,0.5031 -0.7083,1.1481 -0.7083,1.9351 0,0.7926 0.2403,1.4447 0.721,1.9563 0.4806,0.5115 1.0722,0.7673 1.7749,0.7673 0.7251,0 1.3266,-0.2516 1.8044,-0.7547 C 7.0716,12.4812 7.3105,11.8221 7.3105,11.007 7.3105,10.2088 7.0716,9.5623 6.5938,9.0676 6.116,8.573 5.5118,8.3256 4.7809,8.3256 Z m 2.42,-1.8887 h 2.2934 v 9.174 H 7.201 v -0.9697 c -0.4497,0.4272 -0.9008,0.735 -1.3533,0.9233 -0.4525,0.1883 -0.943,0.2825 -1.4714,0.2825 -1.1861,0 -2.212,-0.4596 -3.0777,-1.3787 C 0.4328,13.5493 0,12.4067 0,11.0407 0,9.6242 0.4188,8.4634 1.2564,7.5583 2.0939,6.6533 3.1114,6.2008 4.3087,6.2008 c 0.551,0 1.0681,0.104 1.5515,0.312 0.4835,0.208 0.9304,0.52 1.3407,0.936 z m 4.216,0 h 2.2934 v 0.936 c 0.5228,-0.4385 0.9964,-0.7435 1.4208,-0.915 0.4244,-0.1714 0.8587,-0.2571 1.3027,-0.2571 0.9107,0 1.6836,0.3176 2.3188,0.9528 0.534,0.5396 0.801,1.3379 0.801,2.3947 v 6.0626 h -2.2766 v -4.022 c 0,-1.0963 -0.0491,-1.8242 -0.1475,-2.184 C 17.0312,9.0452 16.8598,8.7711 16.6152,8.5829 16.3707,8.3945 16.0686,8.3003 15.7088,8.3003 c -0.4666,0 -0.867,0.156 -1.2016,0.468 -0.3344,0.312 -0.5663,0.7434 -0.6956,1.2943 -0.0675,0.2867 -0.1012,0.9079 -0.1012,1.8635 v 3.6848 H 11.417 Z m 10.1099,0 h 2.3103 v 9.174 H 21.527 Z M 22.682,2.6592 c 0.4048,0 0.7519,0.1462 1.0414,0.4385 0.2895,0.2923 0.4342,0.6465 0.4342,1.0624 0,0.4104 -0.1433,0.7603 -0.43,1.0498 -0.2867,0.2895 -0.6296,0.4343 -1.0287,0.4343 -0.4103,0 -0.7603,-0.1476 -1.0498,-0.4427 -0.2895,-0.2951 -0.4342,-0.6535 -0.4342,-1.0751 0,-0.4047 0.1433,-0.7504 0.43,-1.0371 0.2867,-0.2867 0.6324,-0.43 1.0371,-0.43 z m 3.221,3.7777 h 2.3104 v 1.054 c 0.3935,-0.4329 0.8306,-0.7561 1.3112,-0.9697 0.4806,-0.2136 1.0048,-0.3204 1.5726,-0.3204 0.5734,0 1.0905,0.1405 1.5515,0.4216 0.461,0.281 0.832,0.6914 1.113,1.231 0.3654,-0.5396 0.8137,-0.95 1.3449,-1.231 0.5312,-0.2811 1.1116,-0.4216 1.7412,-0.4216 0.652,0 1.2254,0.1517 1.7201,0.4553 0.4947,0.3036 0.8502,0.6999 1.0667,1.189 0.2164,0.489 0.3246,1.2844 0.3246,2.3862 v 5.3796 h -2.3188 v -4.6545 c 0,-1.04 -0.1293,-1.744 -0.3879,-2.1122 -0.2586,-0.3682 -0.6464,-0.5523 -1.1636,-0.5523 -0.3935,0 -0.7462,0.1124 -1.0582,0.3373 -0.312,0.2248 -0.5439,0.5354 -0.6956,0.9317 -0.1518,0.3963 -0.2277,1.033 -0.2277,1.9099 v 4.14 h -2.3188 v -4.4436 c 0,-0.8207 -0.0604,-1.4152 -0.1813,-1.7834 -0.1209,-0.3682 -0.3021,-0.6422 -0.5439,-0.822 -0.2417,-0.18 -0.534,-0.2699 -0.8769,-0.2699 -0.3822,0 -0.7293,0.1138 -1.0413,0.3415 -0.312,0.2277 -0.5453,0.5467 -0.6999,0.957 -0.1546,0.4104 -0.2319,1.0568 -0.2319,1.9394 v 4.081 H 25.9031 Z M 48.8971,9.8772 C 48.7453,9.3656 48.446,8.9496 47.9991,8.6292 47.5522,8.3088 47.0336,8.1486 46.4434,8.1486 c -0.6408,0 -1.203,0.1798 -1.6864,0.5396 -0.3036,0.2249 -0.5846,0.6212 -0.8432,1.189 z m 2.3104,1.8128 h -7.3949 c 0.1068,0.652 0.3921,1.1706 0.8559,1.5557 0.4637,0.385 1.0554,0.5776 1.7749,0.5776 0.86,0 1.5993,-0.3007 2.2176,-0.9022 l 1.9394,0.9106 c -0.4835,0.6858 -1.0625,1.1931 -1.737,1.522 -0.6746,0.3288 -1.4756,0.4933 -2.4031,0.4933 -1.4391,0 -2.6111,-0.454 -3.5162,-1.3618 -0.905,-0.9078 -1.3575,-2.0448 -1.3575,-3.4107 0,-1.3998 0.451,-2.562 1.3533,-3.4867 0.9022,-0.9247 2.0335,-1.387 3.3939,-1.387 1.4447,0 2.6195,0.4623 3.5245,1.387 0.905,0.9247 1.3576,2.146 1.3576,3.6637 z M 63.2918,8.3256 c -0.7252,0 -1.3266,0.2474 -1.8044,0.742 -0.4779,0.4947 -0.7168,1.1412 -0.7168,1.9394 0,0.8151 0.239,1.4742 0.7168,1.9773 0.4778,0.5031 1.0792,0.7547 1.8044,0.7547 0.7027,0 1.2943,-0.2558 1.775,-0.7673 0.4806,-0.5116 0.7209,-1.1637 0.7209,-1.9563 0,-0.787 -0.2361,-1.432 -0.7083,-1.9351 -0.4722,-0.5031 -1.068,-0.7547 -1.7876,-0.7547 z m -2.42,-5.4302 v 4.5533 c 0.416,-0.416 0.8657,-0.728 1.3491,-0.936 0.4835,-0.208 1.0006,-0.312 1.5515,-0.312 1.1974,0 2.2148,0.4526 3.0524,1.3576 0.8376,0.905 1.2564,2.0659 1.2564,3.4824 0,1.366 -0.4329,2.5085 -1.2986,3.4276 -0.8656,0.9191 -1.8915,1.3787 -3.0776,1.3787 -0.5284,0 -1.0203,-0.0942 -1.4756,-0.2825 -0.4554,-0.1883 -0.9079,-0.496 -1.3576,-0.9233 v 0.9697 h -2.285 V 2.8954 Z m 14.839,0.1602 h 2.2935 v 3.3813 h 1.366 v 1.9815 h -1.366 v 7.1925 H 75.7108 V 8.4184 H 74.5303 V 6.4369 h 1.1805 z m 11.4818,4.6628 -1.425,1.425 c -0.579,-0.5734 -1.1046,-0.86 -1.5768,-0.86 -0.2586,0 -0.461,0.0547 -0.6071,0.1643 -0.1462,0.1096 -0.2192,0.246 -0.2192,0.409 0,0.1237 0.0463,0.2375 0.139,0.3415 0.0928,0.104 0.322,0.246 0.6873,0.4258 l 0.8432,0.4216 c 0.8882,0.4385 1.498,0.8854 1.8297,1.3407 0.3317,0.4553 0.4975,0.9893 0.4975,1.602 0,0.8152 -0.2993,1.4953 -0.898,2.0406 -0.5987,0.5453 -1.401,0.8179 -2.4073,0.8179 -1.3379,0 -2.406,-0.5228 -3.2042,-1.5683 l 1.4166,-1.5431 a 3.269,3.269 0 0 0 0.9486,0.763 c 0.3626,0.194 0.6844,0.291 0.9655,0.291 0.3035,0 0.548,-0.073 0.7335,-0.2192 0.1856,-0.1462 0.2783,-0.3148 0.2783,-0.506 0,-0.3541 -0.3345,-0.6998 -1.0034,-1.037 l -0.7757,-0.388 c -1.484,-0.7476 -2.226,-1.6835 -2.226,-2.8078 0,-0.7252 0.2796,-1.345 0.8389,-1.8593 0.5593,-0.5143 1.2746,-0.7715 2.146,-0.7715 0.5958,0 1.1565,0.1307 1.6821,0.3921 0.5256,0.2614 0.9711,0.6366 1.3365,1.1257 z M 69.9135,6.4368 h 2.3103 v 9.174 h -2.3103 z m 1.1551,-3.7775 c 0.4048,0 0.7519,0.1461 1.0414,0.4384 0.2895,0.2923 0.4342,0.6465 0.4342,1.0625 0,0.4103 -0.1433,0.7602 -0.43,1.0497 -0.2867,0.2895 -0.6296,0.4343 -1.0287,0.4343 -0.4104,0 -0.7603,-0.1476 -1.0498,-0.4427 -0.2895,-0.2951 -0.4342,-0.6535 -0.4342,-1.075 0,-0.4048 0.1433,-0.7505 0.43,-1.0372 0.2867,-0.2867 0.6324,-0.43 1.0371,-0.43 z" />
        <path
           clip-path="url(#clipPath4685)"
           style="fill:#ed106a;fill-opacity:1"
           id="path3866"
           d="m 11.348094,10.27841 q 0,-2.5174005 -0.7893,-4.8000005 -0.7894002,-2.2827 -2.0694001,-4.096 l 2.2187001,-1.42939997 q 1.8133,2.11199997 2.7947,4.73599997 0.9813,2.624 0.9813,5.5894005 0,2.9653 -0.9813,5.5893 -0.9814,2.624 -2.7947,4.736 l -2.2187001,-1.4293 q 1.2799999,-1.8134 2.0694001,-4.096 0.7893,-2.2827 0.7893,-4.8 z" />
        <path
           clip-path="url(#clipPath4681)"
           style="fill:#ed106a;fill-opacity:1"
           id="path4"
           d="m -1.0693171,10.3253 q 0,2.5174 0.78930019,4.8 0.7894,2.2827 2.06940001,4.096 l -2.21870001,1.4294 q -1.81330019,-2.112 -2.79470019,-4.736 -0.9813,-2.624 -0.9813,-5.5894 0,-2.9653 0.9813,-5.5893 0.9814,-2.624 2.79470019,-4.736 L 1.7893831,1.4293 q -1.28000001,1.8134 -2.06940001,4.096 -0.78930019,2.2827 -0.78930019,4.8 z" />
      </g>
    </g>
  </g>
</svg>
