<svg xmlns="http://www.w3.org/2000/svg" width="92.6315" height="20.6509">
  <g fill="#fff" fill-rule="evenodd">
    <path d="M4.781 8.3256c-.714 0-1.307.2516-1.7792.7547-.4722.5031-.7083 1.1481-.7083 1.9351 0 .7926.2403 1.4447.721 1.9563.4806.5115 1.0722.7673 1.7749.7673.7251 0 1.3266-.2516 1.8044-.7547.4778-.5031.7167-1.1622.7167-1.9773 0-.7982-.2389-1.4447-.7167-1.9394-.4778-.4946-1.082-.742-1.8129-.742zm2.42-1.8887h2.2934v9.174H7.201v-.9697c-.4497.4272-.9008.735-1.3533.9233-.4525.1883-.943.2825-1.4714.2825-1.1861 0-2.212-.4596-3.0777-1.3787C.4328 13.5493 0 12.4067 0 11.0407c0-1.4165.4188-2.5773 1.2564-3.4824.8375-.905 1.855-1.3575 3.0523-1.3575.551 0 1.0681.104 1.5515.312.4835.208.9304.52 1.3407.936zm4.216 0h2.2934v.936c.5228-.4385.9964-.7435 1.4208-.915.4244-.1714.8587-.2571 1.3027-.2571.9107 0 1.6836.3176 2.3188.9528.534.5396.801 1.3379.801 2.3947v6.0626h-2.2766v-4.022c0-1.0963-.0491-1.8242-.1475-2.184-.0984-.3597-.2698-.6338-.5144-.822-.2445-.1884-.5466-.2826-.9064-.2826-.4666 0-.867.156-1.2016.468-.3344.312-.5663.7434-.6956 1.2943-.0675.2867-.1012.9079-.1012 1.8635v3.6848H11.417zm10.1099 0h2.3103v9.174H21.527zm1.1551-3.7777c.4048 0 .7519.1462 1.0414.4385.2895.2923.4342.6465.4342 1.0624 0 .4104-.1433.7603-.43 1.0498-.2867.2895-.6296.4343-1.0287.4343-.4103 0-.7603-.1476-1.0498-.4427-.2895-.2951-.4342-.6535-.4342-1.0751 0-.4047.1433-.7504.43-1.0371.2867-.2867.6324-.43 1.0371-.43zm3.221 3.7777h2.3104v1.054c.3935-.4329.8306-.7561 1.3112-.9697.4806-.2136 1.0048-.3204 1.5726-.3204.5734 0 1.0905.1405 1.5515.4216.461.281.832.6914 1.113 1.231.3654-.5396.8137-.95 1.3449-1.231.5312-.2811 1.1116-.4216 1.7412-.4216.652 0 1.2254.1517 1.7201.4553.4947.3036.8502.6999 1.0667 1.189.2164.489.3246 1.2844.3246 2.3862v5.3796h-2.3188v-4.6545c0-1.04-.1293-1.744-.3879-2.1122-.2586-.3682-.6464-.5523-1.1636-.5523-.3935 0-.7462.1124-1.0582.3373-.312.2248-.5439.5354-.6956.9317-.1518.3963-.2277 1.033-.2277 1.9099v4.14h-2.3188v-4.4436c0-.8207-.0604-1.4152-.1813-1.7834-.1209-.3682-.3021-.6422-.5439-.822-.2417-.18-.534-.2699-.8769-.2699-.3822 0-.7293.1138-1.0413.3415-.312.2277-.5453.5467-.6999.957-.1546.4104-.2319 1.0568-.2319 1.9394v4.081h-2.3103zm22.9941 3.4403c-.1518-.5116-.4511-.9276-.898-1.248s-.9655-.4806-1.5557-.4806c-.6408 0-1.203.1798-1.6864.5396-.3036.2249-.5846.6212-.8432 1.189zm2.3104 1.8128h-7.3949c.1068.652.3921 1.1706.8559 1.5557.4637.385 1.0554.5776 1.7749.5776.86 0 1.5993-.3007 2.2176-.9022l1.9394.9106c-.4835.6858-1.0625 1.1931-1.737 1.522-.6746.3288-1.4756.4933-2.4031.4933-1.4391 0-2.6111-.454-3.5162-1.3618-.905-.9078-1.3575-2.0448-1.3575-3.4107 0-1.3998.451-2.562 1.3533-3.4867.9022-.9247 2.0335-1.387 3.3939-1.387 1.4447 0 2.6195.4623 3.5245 1.387.905.9247 1.3576 2.146 1.3576 3.6637zm12.0843-3.3644c-.7252 0-1.3266.2474-1.8044.742-.4779.4947-.7168 1.1412-.7168 1.9394 0 .8151.239 1.4742.7168 1.9773.4778.5031 1.0792.7547 1.8044.7547.7027 0 1.2943-.2558 1.775-.7673.4806-.5116.7209-1.1637.7209-1.9563 0-.787-.2361-1.432-.7083-1.9351-.4722-.5031-1.068-.7547-1.7876-.7547zm-2.42-5.4302v4.5533c.416-.416.8657-.728 1.3491-.936.4835-.208 1.0006-.312 1.5515-.312 1.1974 0 2.2148.4526 3.0524 1.3576.8376.905 1.2564 2.0659 1.2564 3.4824 0 1.366-.4329 2.5085-1.2986 3.4276-.8656.9191-1.8915 1.3787-3.0776 1.3787-.5284 0-1.0203-.0942-1.4756-.2825-.4554-.1883-.9079-.496-1.3576-.9233v.9697h-2.285V2.8954zm14.839.1602h2.2935v3.3813h1.366v1.9815h-1.366v7.1925h-2.2935V8.4184h-1.1805V6.4369h1.1805zm11.4818 4.6628l-1.425 1.425c-.579-.5734-1.1046-.86-1.5768-.86-.2586 0-.461.0547-.6071.1643-.1462.1096-.2192.246-.2192.409 0 .1237.0463.2375.139.3415.0928.104.322.246.6873.4258l.8432.4216c.8882.4385 1.498.8854 1.8297 1.3407.3317.4553.4975.9893.4975 1.602 0 .8152-.2993 1.4953-.898 2.0406-.5987.5453-1.401.8179-2.4073.8179-1.3379 0-2.406-.5228-3.2042-1.5683l1.4166-1.5431a3.269 3.269 0 0 0 .9486.763c.3626.194.6844.291.9655.291.3035 0 .548-.073.7335-.2192.1856-.1462.2783-.3148.2783-.506 0-.3541-.3345-.6998-1.0034-1.037l-.7757-.388c-1.484-.7476-2.226-1.6835-2.226-2.8078 0-.7252.2796-1.345.8389-1.8593.5593-.5143 1.2746-.7715 2.146-.7715.5958 0 1.1565.1307 1.6821.3921.5256.2614.9711.6366 1.3365 1.1257zM69.9135 6.4368h2.3103v9.174h-2.3103zm1.1551-3.7775c.4048 0 .7519.1461 1.0414.4384.2895.2923.4342.6465.4342 1.0625 0 .4103-.1433.7602-.43 1.0497-.2867.2895-.6296.4343-1.0287.4343-.4104 0-.7603-.1476-1.0498-.4427-.2895-.2951-.4342-.6535-.4342-1.075 0-.4048.1433-.7505.43-1.0372.2867-.2867.6324-.43 1.0371-.43z"/>
    <path d="M89.4955 10.3256q0-2.5174-.7893-4.8-.7894-2.2827-2.0694-4.096L88.8555.0002q1.8133 2.112 2.7947 4.736.9813 2.624.9813 5.5894 0 2.9653-.9813 5.5893-.9814 2.624-2.7947 4.736l-2.2187-1.4293q1.28-1.8134 2.0694-4.096.7893-2.2827.7893-4.8zm-33.7475-.0003q0 2.5174.7893 4.8.7894 2.2827 2.0694 4.096l-2.2187 1.4294q-1.8133-2.112-2.7947-4.736-.9813-2.624-.9813-5.5894 0-2.9653.9813-5.5893Q54.5747 2.112 56.388 0l2.2187 1.4293q-1.28 1.8134-2.0694 4.096-.7893 2.2827-.7893 4.8z"/>
  </g>
</svg>
